<?xml version="1.0" encoding="UTF-8" standalone="no"?>
<svg
   viewBox="0 0 38 38"
   version="1.0"
   id="svg874"
   sodipodi:docname="arrow-up.svg"
   inkscape:version="1.1.1 (3bf5ae0d25, 2021-09-20)"
   xmlns:inkscape="http://www.inkscape.org/namespaces/inkscape"
   xmlns:sodipodi="http://sodipodi.sourceforge.net/DTD/sodipodi-0.dtd"
   xmlns="http://www.w3.org/2000/svg"
   xmlns:svg="http://www.w3.org/2000/svg">
  <sodipodi:namedview
     id="namedview876"
     pagecolor="#ffffff"
     bordercolor="#666666"
     borderopacity="1.0"
     inkscape:pageshadow="2"
     inkscape:pageopacity="0.0"
     inkscape:pagecheckerboard="0"
     showgrid="false"
     inkscape:zoom="21.289474"
     inkscape:cx="19"
     inkscape:cy="19"
     inkscape:window-width="1920"
     inkscape:window-height="1017"
     inkscape:window-x="-8"
     inkscape:window-y="-8"
     inkscape:window-maximized="1"
     inkscape:current-layer="svg874" />
  <defs
     id="defs866">
    <linearGradient
       id="a"
       y2="50.93"
       gradientUnits="userSpaceOnUse"
       x2="45.964"
       gradientTransform="rotate(180 33 31.524)"
       y1="10.692"
       x1="22.04">
      <stop
         stop-color="#3c44dc"
         offset="0"
         id="stop851" />
      <stop
         stop-color="#0d1f6a"
         offset="1"
         id="stop853" />
    </linearGradient>
    <linearGradient
       id="c"
       y2="48.499"
       gradientUnits="userSpaceOnUse"
       x2="1.753"
       gradientTransform="rotate(180 16.781 28.219)"
       y1="16.376"
       x1="1.631">
      <stop
         stop-color="#ced1f2"
         offset="0"
         id="stop856" />
      <stop
         stop-color="#1d42c9"
         stop-opacity="0"
         offset="1"
         id="stop858" />
    </linearGradient>
    <radialGradient
       id="b"
       gradientUnits="userSpaceOnUse"
       cy="-.885"
       cx="-16.567"
       gradientTransform="matrix(-.32891 .97452 -.82401 -.27811 29.891 37.68)"
       r="17.1">
      <stop
         stop-color="#d2d0f3"
         offset="0"
         id="stop861" />
      <stop
         stop-color="#1c3db8"
         offset="1"
         id="stop863" />
    </radialGradient>
  </defs>
  <path
     d="M42 50c1 0 1-1 1-1V32c1-.049 5 0 5 0 .447-.009.846-.109 1.016-.523s.077-.889-.235-1.209l-16-16a1.122 1.122 0 0 0-1.562 0l-16 16c-.312.32-.405.795-.235 1.209s.569.514 1.016.523h5v17.049s0 1 1 1c6 0 14-.049 20-.049z"
     fill="url(#a)"
     transform="translate(-13 -13)"
     id="path868"
     style="fill:#ff83bb;fill-opacity:1" />
  <path
     d="M41.781 15.156c-5.903.002-13.643.061-19.562.063V32a1.22 1.22 0 0 1-1.157 1.219c-1.093.053-4.057.008-4.624 0L32 48.781l15.531-15.562H43A1.22 1.22 0 0 1 41.781 32V15.156z"
     fill="url(#b)"
     transform="rotate(180 25.5 25.5)"
     id="path870"
     style="fill:#ffb380" />
  <path
     d="M40.781 41.969c0-4.118-.037-9.206 0-9.75C41 29 45 31 44 29S32 17 32 17L21.062 28.062C29 31 36.362 35.276 40.781 41.969z"
     fill="url(#c)"
     transform="translate(-13 -13)"
     id="path872"
     style="fill:#ffd5d5" />
</svg>
